<?xml version="1.0" encoding="UTF-8" standalone="no"?>
<svg
   xmlns:dc="http://purl.org/dc/elements/1.1/"
   xmlns:cc="http://creativecommons.org/ns#"
   xmlns:rdf="http://www.w3.org/1999/02/22-rdf-syntax-ns#"
   xmlns:svg="http://www.w3.org/2000/svg"
   xmlns="http://www.w3.org/2000/svg"
   xmlns:sodipodi="http://sodipodi.sourceforge.net/DTD/sodipodi-0.dtd"
   xmlns:inkscape="http://www.inkscape.org/namespaces/inkscape"
   version="1.1"
   id="svg2"
   xml:space="preserve"
   width="3200"
   height="2240"
   viewBox="0 0 3200 2240"
   sodipodi:docname="couple_valentine_one_line_drawing_love-9.eps"><metadata
     id="metadata8"><rdf:RDF><cc:Work
         rdf:about=""><dc:format>image/svg+xml</dc:format><dc:type
           rdf:resource="http://purl.org/dc/dcmitype/StillImage" /></cc:Work></rdf:RDF></metadata><defs
     id="defs6" /><sodipodi:namedview
     pagecolor="#ffffff"
     bordercolor="#666666"
     borderopacity="1"
     objecttolerance="10"
     gridtolerance="10"
     guidetolerance="10"
     inkscape:pageopacity="0"
     inkscape:pageshadow="2"
     inkscape:window-width="640"
     inkscape:window-height="480"
     id="namedview4" /><g
     id="g10"
     inkscape:groupmode="layer"
     inkscape:label="ink_ext_XXXXXX"
     transform="matrix(1.3333333,0,0,-1.3333333,0,2240)"><g
       id="g12"
       transform="scale(0.1)"><path
         d="M 0,0 H 24000 V 16800 H 0 V 0"
         style="fill:#ffffff;fill-opacity:1;fill-rule:evenodd;stroke:none"
         id="path14" /><path
         d="m 192.113,12894.6 c 547.438,781.2 1511.457,1253.5 2685.497,1627.5 1499.09,477.4 3340.6,794.5 4750.52,386.4 1409.93,-408.1 2388.27,-1541.5 2148.26,-2151.5 -240,-610 -1698.34,-696.6 -2847.51,-865 -1149.16,-168.3 -1989.16,-418.3 -2209.16,-833.3 -220,-415 180,-995 270,-1670.02 90,-675 -130,-1445 -460,-1290 -330,155 -770,1235 -975,1170 -205,-65 -175,-1275.01 -489.68,-2028.6 C 2571.19,6057.4 1959.22,6231.8 1816.64,6600.1 c -142.09,367.02 155.14,923.94 158.06,1151.22 15.62,1217.26 -692.73,1580.3 -437.16,1928.77 354.67,483.61 1559.69,151.1 1329.51,-1265.93 -230.18,-1417.03 -718.04,-2538.56 98.5,-3771.06 816.53,-1232.6 3154.94,-2238.6 4370.96,-2670.6 1216.03,-432.1 1309.67,-290.3 1331.97,56.5 22.3,346.9 -26.74,898.8 57.29,1215 84.02,316.1 301.11,396.4 370.67,479.3 69.56,83 -8.4,168.5 -273.45,317 -265.06,148.5 -717.19,359.9 -929.88,495 -212.69,135.1 -185.94,193.9 90.96,171.2 276.91,-22.7 803.96,-127.1 1042.07,-160.5 238.11,-33.5 187.28,4 79.35,210.9 -107.93,207 -272.95,583.5 -331.37,786.4 -58.44,203 -10.28,232.4 305.75,223.2 316.02,-9.2 899.91,-57.1 882.51,250.6 -0.2,3.5 -1251.88,2000.97 -1574.17,3457.89 -298.17,1347.91 1957.69,1251.21 1621.39,2204.11 -306.36,867.9 -1135.36,-24.5 -1206.05,-983.5 -273.8,-3714.06 4840.45,1202 5234.85,-496.6 215.1,-926.13 29.5,-1985.52 -572.6,-2720.96 -360.2,-439.97 -978.8,-1103.24 -996.2,-1410.94 -17.4,-307.6 566.5,-259.8 882.5,-250.6 316,9.3 364.2,-20.2 305.8,-223.1 -58.5,-203 -223.5,-579.4 -331.4,-786.4 -107.9,-207 -158.8,-244.4 79.3,-211 238.1,33.5 765.2,137.8 1042.1,160.6 276.9,22.7 303.7,-36.1 91,-171.2 -212.7,-135.2 -664.9,-346.5 -929.9,-495 -265.1,-148.5 -343,-234.1 -273.5,-317 69.6,-82.9 286.7,-163.2 370.7,-479.4 84,-316.1 35,-868 57.3,-1214.9 22.3,-346.9 115.9,-488.7 1332,-56.6 1216,432.1 3554.4,1438.1 4445,2663.1 890.6,1225.1 333.5,2669.15 -495.1,3231.18 -828.6,562.03 -1928.6,242.03 -2838.6,627.03 -910,385 -1630,1474.99 -1877,2441.99 -246.9,967.1 -20.8,1811.1 985.8,2415 1006.7,604 2793.9,967.9 4265.9,830.9 1471.9,-137.1 2628.6,-775 3364.4,-1373.9 380.5,-309.7 648.4,-609 862,-903.3"
         style="fill:none;stroke:#000000;stroke-width:83.999;stroke-linecap:round;stroke-linejoin:round;stroke-miterlimit:2.6131;stroke-dasharray:none;stroke-opacity:1"
         id="path16" /></g></g></svg>
