<?xml version="1.0" encoding="UTF-8" standalone="no"?>
<svg
   xmlns:dc="http://purl.org/dc/elements/1.1/"
   xmlns:cc="http://creativecommons.org/ns#"
   xmlns:rdf="http://www.w3.org/1999/02/22-rdf-syntax-ns#"
   xmlns:svg="http://www.w3.org/2000/svg"
   xmlns="http://www.w3.org/2000/svg"
   xmlns:sodipodi="http://sodipodi.sourceforge.net/DTD/sodipodi-0.dtd"
   xmlns:inkscape="http://www.inkscape.org/namespaces/inkscape"
   version="1.1"
   id="svg2"
   xml:space="preserve"
   width="3200"
   height="2240"
   viewBox="0 0 3200 2240"
   sodipodi:docname="one_line_cute_romantic-9-01.eps"><metadata
     id="metadata8"><rdf:RDF><cc:Work
         rdf:about=""><dc:format>image/svg+xml</dc:format><dc:type
           rdf:resource="http://purl.org/dc/dcmitype/StillImage" /></cc:Work></rdf:RDF></metadata><defs
     id="defs6" /><sodipodi:namedview
     pagecolor="#ffffff"
     bordercolor="#666666"
     borderopacity="1"
     objecttolerance="10"
     gridtolerance="10"
     guidetolerance="10"
     inkscape:pageopacity="0"
     inkscape:pageshadow="2"
     inkscape:window-width="640"
     inkscape:window-height="480"
     id="namedview4" /><g
     id="g10"
     inkscape:groupmode="layer"
     inkscape:label="ink_ext_XXXXXX"
     transform="matrix(1.3333333,0,0,-1.3333333,0,2240)"><g
       id="g12"
       transform="scale(0.1)"><path
         d="M 0,0 H 24000 V 16800 H 0 V 0"
         style="fill:#ffffff;fill-opacity:1;fill-rule:evenodd;stroke:none"
         id="path14" /><path
         d="m 64.082,2725.7 c 550.891,-297.1 1101.778,-594.2 1651.478,-448.6 549.69,145.5 1098.19,733.8 1702.62,786.9 604.43,53.2 1264.78,-428.7 1913.53,-579.3 648.75,-150.7 1285.9,30 1143.26,481.7 -142.65,451.7 -1065.09,1174.5 -1245.77,1673.7 -180.68,499.3 380.39,775.1 717.98,1145.9 337.6,370.9 451.71,836.9 351.86,1274.35 -99.85,437.44 -413.67,846.36 -489.75,1217.23 -76.07,370.88 85.59,703.72 366.13,965.24 280.54,261.51 679.94,451.7 922.44,779.78 242.5,328.1 328.08,794.1 280.53,1207.7 -47.55,413.7 -228.23,775.1 -223.48,1027.1 4.75,252 194.94,394.6 584.84,489.7 389.9,95.1 979.5,142.7 1421.71,252 442.19,109.4 736.99,280.6 779.79,480.3 42.79,199.7 -166.42,427.9 -451.71,437.4 -285.29,9.5 -646.66,-199.7 -789.31,-518.3 -142.64,-318.5 -66.56,-746.5 85.6,-1188.7 152.15,-442.2 380.38,-898.6 418.42,-1312.3 38.04,-413.7 -114.13,-784.6 -323.34,-1155.42 C 8671.7,9371.2 8405.42,9000.32 8256.46,8710.88 8107.5,8421.44 8075.83,8213.43 8194.71,7890.1 8313.57,7566.77 8582.98,7128.12 8689.15,6642.5 8795.32,6156.9 8738.26,5624.4 8552.83,5096.6 8367.39,4568.8 8053.56,4045.8 7987,3575 c -66.57,-470.7 114.12,-889.1 351.87,-1000.8 237.74,-111.8 532.54,83.2 677.56,359 145.02,275.7 140.26,632.3 202.07,917.6 61.81,285.3 190.19,499.3 444.58,815.5 254.39,316.2 634.82,734.6 1005.62,977.1 370.9,242.5 732.3,309.1 960.2,395.7 228,86.6 322.6,193.3 301.2,381.1 -21.4,187.8 -158.8,456.76 -218,631.67 -59.1,174.89 -40.1,255.73 -6.8,341.31 33.3,85.59 80.8,175.93 54.7,228.24 -26.2,52.29 -126,66.56 -254.4,76.07 -128.4,9.51 -285.3,14.27 -408.9,26.15 -123.7,11.89 -214,30.91 -223.5,80.84 -9.5,49.92 61.8,130.75 168.8,211.58 107,80.83 249.6,161.66 323.3,240.12 73.7,78.46 78.5,154.54 42.8,237.75 -35.6,83.21 -111.7,173.56 -121.2,242.5 -9.6,68.94 47.5,116.49 140.2,173.54 92.7,57.06 221.1,123.63 340,185.45 118.9,61.81 228.2,118.87 199.7,237.74 -28.5,118.87 -194.9,299.55 -401.8,532.53 -206.8,233.01 -454.1,518.31 -592,701.31 -137.9,183.1 -166.4,263.9 -171.1,359 -4.8,95.1 14.2,204.5 40.4,330.5 26.1,126 59.4,268.6 33.3,399.4 -26.2,130.8 -111.8,249.6 -252,385.1 -140.3,135.5 -335.3,287.7 -485,499.3 -149.81,211.6 -254.41,482.6 -363.77,675.2 -109.36,192.6 -223.48,306.7 -437.45,275.8 -213.96,-30.9 -527.79,-206.9 -736.99,-413.7 -209.22,-206.8 -313.83,-444.6 -247.26,-708.5 66.56,-263.9 304.3,-553.9 323.33,-889.1 19.01,-335.2 -180.69,-715.6 -427.94,-1131.7 -247.26,-416.04 -542.05,-867.75 -594.35,-1195.83 -52.3,-328.09 137.89,-532.54 261.52,-784.54 123.62,-252.01 180.68,-551.56 173.55,-744.13 -7.13,-192.57 -78.45,-278.16 -149.78,-451.71 -71.32,-173.55 -142.64,-435.09 -90.34,-717.99 52.3,-282.9 228.22,-587.2 64.19,-1017.5 -164.05,-430.4 -668.06,-986.7 -908.17,-1350.4 -240.12,-363.7 -216.35,-534.9 128.37,-418.4 344.72,116.5 1010.4,520.6 1440.72,829.7 430.31,309.1 625.26,523 810.7,751.2 185.44,228.3 361.36,470.8 649.07,634.8 287.6,164.1 687,249.7 1072.2,266.3 385.1,16.6 756,-35.7 1153,-88 397.1,-52.3 820.2,-104.6 1250.5,-313.8 430.4,-209.2 867.8,-575.3 1478.8,-684.7 611,-109.3 1395.5,38.1 1733.1,142.7 337.6,104.6 228.3,166.4 0,171.1 -228.2,4.8 -575.3,-47.5 -955.7,-71.3 -380.4,-23.8 -794,-19 -1060.3,40.4 -266.3,59.5 -385.2,173.6 -454.1,309.1 -69,135.5 -88,292.4 -52.3,518.3 35.7,225.8 126,520.6 116.5,717.95 -9.5,197.32 -118.9,297.18 -216.4,413.67 -97.4,116.5 -183,249.63 -140.2,330.46 42.8,80.83 213.9,109.37 425.5,142.65 211.6,33.28 463.6,71.32 430.3,145.02 -33.2,73.69 -351.8,183.06 -622.8,244.86 -271.1,61.81 -494.5,76.08 -549.2,218.72 -54.7,142.65 59.4,413.68 107,584.85 47.5,171.17 28.5,242.5 -149.8,271.03 -178.3,28.53 -515.9,14.26 -725.1,33.28 -209.2,19.02 -290.1,71.33 -278.2,216.35 11.9,145.03 116.5,382.77 290.1,646.66 173.5,263.9 416,553.9 546.8,734.6 130.7,180.7 149.7,252 121.2,385.2 -28.5,133.1 -104.6,328 -187.8,572.9 -83.2,244.9 -173.6,539.7 -185.4,763.2 -11.9,223.4 54.6,375.6 199.7,587.2 145,211.6 368.5,482.6 551.5,710.8 183.1,228.3 325.7,413.7 494.5,551.6 168.8,137.9 363.8,228.2 561.1,218.7 197.3,-9.5 397,-118.9 530.2,-266.2 133.1,-147.4 199.7,-332.9 211.5,-630.1 11.9,-297.1 -30.9,-706.1 64.2,-943.8 95.1,-237.7 328.1,-304.3 677.6,-375.6 349.5,-71.3 815.5,-147.4 1093.6,-294.8 278.2,-147.4 368.5,-366.1 387.5,-803.6 19.1,-437.4 -33.2,-1093.6 -2.3,-1260 30.9,-166.45 145,156.9 313.8,485 168.8,328.1 392.3,660.9 601.5,794 209.2,133.2 404.1,66.6 594.3,-97.4 190.2,-164.1 375.6,-425.6 285.3,-798.9 -90.3,-373.2 -456.5,-858.21 -715.6,-1107.84 -259.1,-249.63 -411.3,-263.89 -335,-639.47 76.3,-375.57 381.1,-1112.45 644.8,-1735.27 263.6,-622.82 486.2,-1131.62 462.4,-1378.02 -23.9,-246.4 -294.2,-230.5 -1001.7,-476.9 -707.4,-246.5 -1852.1,-755.2 -2496,-1367.3 -643.9,-612.1 -787,-1327.6 -707.5,-1550.1 79.5,-222.6 381.5,47.6 700.7,399.9 319.2,352.3 655.4,786.5 1183.8,970.6 528.3,184.2 1248.8,118.3 1781.4,-207.6 532.6,-326 877.3,-911.9 1296.2,-966.4 418.8,-54.5 911.6,422.5 1486.8,549.5 575.1,127.1 1232.5,-95.8 1889.9,-318.7"
         style="fill:none;stroke:#000000;stroke-width:72;stroke-linecap:round;stroke-linejoin:miter;stroke-miterlimit:2.6131;stroke-dasharray:none;stroke-opacity:1"
         id="path16" /></g></g></svg>
