<?xml version="1.0" encoding="UTF-8" standalone="no"?>
<svg
   xmlns:dc="http://purl.org/dc/elements/1.1/"
   xmlns:cc="http://creativecommons.org/ns#"
   xmlns:rdf="http://www.w3.org/1999/02/22-rdf-syntax-ns#"
   xmlns:svg="http://www.w3.org/2000/svg"
   xmlns="http://www.w3.org/2000/svg"
   xmlns:sodipodi="http://sodipodi.sourceforge.net/DTD/sodipodi-0.dtd"
   xmlns:inkscape="http://www.inkscape.org/namespaces/inkscape"
   version="1.1"
   id="svg2"
   xml:space="preserve"
   width="4200"
   height="2800"
   viewBox="0 0 4200 2800"
   sodipodi:docname="vecteezy_one-continuous-line-drawing-of-human-head-with-smart-brain_3510713.eps"><metadata
     id="metadata8"><rdf:RDF><cc:Work
         rdf:about=""><dc:format>image/svg+xml</dc:format><dc:type
           rdf:resource="http://purl.org/dc/dcmitype/StillImage" /></cc:Work></rdf:RDF></metadata><defs
     id="defs6" /><sodipodi:namedview
     pagecolor="#ffffff"
     bordercolor="#666666"
     borderopacity="1"
     objecttolerance="10"
     gridtolerance="10"
     guidetolerance="10"
     inkscape:pageopacity="0"
     inkscape:pageshadow="2"
     inkscape:window-width="640"
     inkscape:window-height="480"
     id="namedview4" /><g
     id="g10"
     inkscape:groupmode="layer"
     inkscape:label="ink_ext_XXXXXX"
     transform="matrix(1.3333333,0,0,-1.3333333,0,2800)"><g
       id="g12"
       transform="scale(0.1)"><path
         d="M 0,0 H 31500 V 21000 H 0 V 0"
         style="fill:#ffffff;fill-opacity:1;fill-rule:evenodd;stroke:none"
         id="path14" /><path
         d="m 18740.4,3200.4 c -146.3,181.7 -2208.6,2827.7 -2182.3,2242 26.2,-585.9 393.1,-1053.5 760.2,61.9 363.9,1106.1 798.3,1026.6 725.9,1601.5 -72.4,575.2 -2235.7,1643.5 -1730.1,1041.7 501,-596.6 3196.2,-1466.4 3861.9,-1281.6 656.8,182.4 435.9,1001.1 553.7,1267.5 117.4,265.8 418.9,119.4 345.3,480.5 -23.7,116.5 -608.4,342.2 -497.9,273.9 110.2,-68 658.9,117.2 682.6,222.3 23.7,105 -174.6,317.5 -185.5,639 -10.4,305.9 -242,277.8 -154.9,121 87,-156.5 1153.1,59.9 1140.4,336.1 -12.7,276.2 -799.4,1701.1 -824.7,2031.5 -25.3,330.3 370.6,426 440.6,959.9 69.9,532.8 85.2,2116.5 -1423.8,3411.3 -1553.7,1333 -4205.1,1599.1 -6016.5,531.7 -4547.23,-3223.9 -382.9,-7034.4 -409.3,-7804.6 -27.6,-805 1298.7,678.6 1720.5,699.2 418.5,20.4 -129.6,-1181.9 -50.8,-645.6 78.5,535.2 584.5,1216.2 1147.4,1543.7 556.6,323.9 345.6,1485.2 242.7,1070 -103.1,-416.3 1123.8,-446.4 1406,-144.9 280.7,299.7 131.7,605.6 131.7,605.6 0,0 724.5,-368.3 1279.4,64.2 548.5,427.4 290.4,995.5 290.4,995.5 0,0 803.7,585.4 574.9,1290.8 -229.7,708.1 -1039,379 -758.3,313.4 279.1,-65.3 477.8,379.8 -60.3,775 -543.7,399.3 -1052.5,658.7 -1139.6,185 -87.2,-474.8 46.3,-1209.2 153,-699.5 106.4,508.3 -206.5,1128.3 -853.7,1255.6 -655.3,129 -852.2,-363.3 -1341.7,-716.1 -494.4,-356.3 -570.9,47.9 -334.8,71.9 235,23.9 1080.5,-56.7 1103.9,247.4 23.4,303.9 -987.3,779.8 -1614.2,381.4 -634.8,-403.5 -591.7,-1011.6 -417.2,-891.7 174,119.5 -488.3,558.1 -1077.4,164.5 -596,-398.3 -820.3,-1284.6 -471.3,-1409.7 346.6,-124.3 690.6,437.2 370.1,394.7 -322.5,-42.6 -816.1,-175.9 -871.2,-846.2 -55.1,-671.5 620.1,-856.8 608.8,-763.3 -11.1,93.5 -701.8,-19.5 -549.9,-717.1 151.4,-696.1 970.7,-557.3 887.2,-667.9 -83.8,-110.7 -284.1,-500.5 -122.4,-818.8 161.2,-317.5 105.5,148.6 269.7,333.6 163.5,184.3 523,513.8 405.6,200.5 -117.7,-314.1 -605.9,-832.8 -360.6,-796.1 244.2,36.6 789.5,865.6 831.2,699.2 41.7,-166.3 -628.5,-718.2 -406.5,-718.7 220.9,-0.5 621.3,661.6 684,532.3 62.6,-129.2 -516.8,-514.2 -282.6,-570.1 233.1,-55.7 1154.8,636.7 934.7,345.9 -221.1,-292.2 -810.3,-622.8 -1337,-549 -531.9,74.4 -981.9,990.9 -896.1,1120.8 85.5,129.6 411.3,460.5 807.2,306.4 393,-152.9 1509.8,-495 1709.9,232 199,723.6 -53.3,1384.5 -136.7,1004.5 -83.7,-380.7 560.5,-1283.3 1246.6,-842 676.6,435.2 339.8,1482.6 90.5,1185.2 -250.7,-298.9 554,-946.1 1316.2,-393.4 750.3,544.1 1063.5,1393.5 401.7,1296.5 -670.8,-98.3 -679.9,8.6 -239.1,203.8 437.1,193.4 415.2,810.3 13.4,635.7 -405.1,-176.1 -1037.8,-343.9 -904.3,-867 133.1,-522.1 621.6,-414 187.6,-256.6 -437.6,158.7 -665.6,364.4 -651.7,776 14,411.3 644,719.7 206.7,884.6 -441,166.3 -1159.3,5.9 -1282,-657.3 -123.1,-665.2 631.8,-1216.4 165.6,-1074.3 -470.4,143.4 -55.9,1340.6 -660.2,1387.5 -611.4,47.3 -1411.6,-98.7 -1368.3,-709 43.3,-610.2 407,259.1 751.2,226.1 342.1,-32.9 366.3,-873.2 -172.8,-799.6 -544.7,74.3 -631.4,833.9 -907.1,401.8 -277.3,-434.7 -713.9,-960.3 -233.2,-1271.5 476.6,-308.3 1395.3,641 1662.2,577.5 265.5,-63.2 228.7,-992 -442.3,-1233.9 -679.9,-245 -1449.6,-100.9 -1131.6,134.5 316,233.8 823.5,590 721,224.2 -102.9,-366.7 -1357,-210.6 -1134.1,-476.4 222,-264.7 1040,-241.3 1546.2,-323.3 501.5,-81.3 881.8,-506.4 885.5,-688.8 3.8,-182.5 -207.5,-820.9 -832,-1169.7 -632.3,-353.1 -1583.4,72.1 -1486,-114.5 97.1,-186.4 198.4,-782.9 -132.5,-1404.2 -333.1,-625.8 -1152.6,-1572.9 -1201.3,-1232.8 -48.8,340.3 606.6,-2610.1 2290,-2336.3 1630.7,265.2 -909.8,2767.3 -2733.6,1866.8 C 10384.6,6230.9 9440.21,4880.2 9440.21,4880.2"
         style="fill:none;stroke:#363435;stroke-width:83.996;stroke-linecap:round;stroke-linejoin:round;stroke-miterlimit:10;stroke-dasharray:none;stroke-opacity:1"
         id="path16" /></g></g></svg>
