<?xml version="1.0" encoding="UTF-8" standalone="no"?>
<svg
   xmlns:dc="http://purl.org/dc/elements/1.1/"
   xmlns:cc="http://creativecommons.org/ns#"
   xmlns:rdf="http://www.w3.org/1999/02/22-rdf-syntax-ns#"
   xmlns:svg="http://www.w3.org/2000/svg"
   xmlns="http://www.w3.org/2000/svg"
   xmlns:sodipodi="http://sodipodi.sourceforge.net/DTD/sodipodi-0.dtd"
   xmlns:inkscape="http://www.inkscape.org/namespaces/inkscape"
   version="1.1"
   id="svg2"
   xml:space="preserve"
   width="3840"
   height="1920"
   viewBox="0 0 3840 1920"
   sodipodi:docname="drawing_one_line_feb_adin_mixed_objects-22.eps"><metadata
     id="metadata8"><rdf:RDF><cc:Work
         rdf:about=""><dc:format>image/svg+xml</dc:format><dc:type
           rdf:resource="http://purl.org/dc/dcmitype/StillImage" /></cc:Work></rdf:RDF></metadata><defs
     id="defs6" /><sodipodi:namedview
     pagecolor="#ffffff"
     bordercolor="#666666"
     borderopacity="1"
     objecttolerance="10"
     gridtolerance="10"
     guidetolerance="10"
     inkscape:pageopacity="0"
     inkscape:pageshadow="2"
     inkscape:window-width="640"
     inkscape:window-height="480"
     id="namedview4" /><g
     id="g10"
     inkscape:groupmode="layer"
     inkscape:label="ink_ext_XXXXXX"
     transform="matrix(1.3333333,0,0,-1.3333333,0,1920)"><g
       id="g12"
       transform="scale(0.1)"><path
         d="M 0,0 H 28800 V 14400 H 0 V 0"
         style="fill:#ffffff;fill-opacity:1;fill-rule:evenodd;stroke:none"
         id="path14" /><path
         d="m 28766.5,12109.4 c -1383.9,-1112 -2768,-2223.99 -4611.9,-2431.99 -1844.1,-208.01 -4148.1,487.99 -5633.6,704.49 -1485.6,216.5 -2152.7,-46.5 -2559.3,-286.2 -406.5,-239.7 -552.4,-456.12 -736.4,-550.52 -184,-94.4 -406.1,-66.78 -531.5,-1.77 -125.5,65.01 -154.3,167.41 -181.5,257.01 -27.2,89.59 -52.8,166.4 -97.6,249.58 -44.8,83.2 -108.8,172.8 -190.4,372.8 -81.6,200 -180.8,510.4 -190.4,750.4 -9.6,240 70.4,409.6 227.2,532.8 156.8,123.2 390.4,200 641.6,184 251.2,-16 520,-124.8 657.6,-316.8 137.6,-192 144,-467.2 107.2,-721.6 -36.8,-254.4 -116.8,-488 -206.4,-659.2 -89.6,-171.2 -188.8,-279.98 -270.4,-318.38 -81.6,-38.4 -145.6,-6.4 -179.2,32 -33.6,38.4 -36.8,83.2 -36.8,143.98 0,60.8 3.2,137.6 11.2,228.8 8,91.2 20.8,196.8 51.2,308.8 30.4,112 78.4,230.4 126.4,299.2 48,68.8 96,88 123.2,40 27.2,-48 33.6,-163.2 -9.6,-248 -43.2,-84.8 -136,-139.2 -211.2,-150.4 -75.2,-11.2 -132.8,20.8 -164.8,99.2 -32,78.4 -38.4,203.2 -17.6,286.4 20.8,83.2 68.8,124.8 96,92.8 27.2,-32 33.6,-137.6 16,-230.4 -17.6,-92.8 -59.2,-172.8 -115.2,-203.2 -56,-30.4 -126.4,-11.2 -208,68.8 -81.6,80 -174.4,220.8 -195.2,324.8 -20.8,104 30.4,171.2 97.6,132.8 67.2,-38.4 150.4,-182.4 176,-340.8 25.6,-158.4 -6.4,-331.2 -20.8,-505.6 -14.4,-174.4 -11.2,-350.38 81.6,-446.38 92.8,-96 275.2,-112 366.4,-216 91.2,-104 91.2,-296 31.2,-416 -60,-120 -180,-168 -308,-164 -128,4 -264,60 -352,152 -88,92 -128,220 -128,340 0,120 40,232 -334.7,2.65 -374.8,-229.34 -1164.3,-800.04 -2079,-957.38 -914.8,-157.35 -1954.8,98.65 -2734.77,358.65 -780,260 -1300,524 -1800,548 -500,24 -980,-192 -1343.99,-456 -364,-264 -612.01,-576 -932.01,-744 -320,-168 -711.99,-192 -967.99,-52 -256.01,140 -376.01,444 -332,752 44,308 252,620 519.99,756 268.01,136 596,96 768.01,-48 171.99,-144 187.99,-392 96,-508 -92,-116 -292,-100 -444.01,44 -151.99,144 -256,416 -91.99,668 164,251.96 595.99,483.96 987.99,551.96 392.01,68 744,-28 932.01,-184 187.99,-156 211.99,-371.96 111.99,-435.96 -100,-64 -324,24 -396,168 -71.99,143.96 8.01,343.96 224,435.96 216,92 568,76 892,-100 324,-176 620,-511.96 736,-827.96 116,-316 52.01,-612 -103.99,-792 -156.01,-180 -404.01,-244 -608.01,-156 -204,88 -364,328 -324,444 40,116 280,108 460,-104 180,-212 300,-628 276,-960 -24,-332 -192,-580 -456,-652 -264,-72 -624,32 -840,188 -216,156 -287.99,364 -256,492 32,128 168,176 240,100 72,-76 80,-276 16,-512 -64,-236 -200,-507.99 -435.99,-616 -236,-108 -572,-52 -852,116 -280,168 -504.01,448 -464.01,656 40,208 344.01,344 692,84 348,-260 740,-916 1088.01,-1767.99 347.99,-852.01 651.99,-1900.05 575.99,-2516.05 -76,-616 -531.99,-800 -898.56,-822.3 -366.56,-22.4 -643.68,116.9 -935.79,25.7 -292.12,-91.2 -599.23,-412.9 -628.66,-610.5 -29.44,-197.7 218.78,-271.3 422.9,119.9 204.12,391.2 364.12,1247.2 52.11,1895.2 -312,648.04 -1095.99,1088.05 -1596,1840.04 -500,752 -715.99,1816 -471.99,2688 244,872 947.99,1551.96 1891.99,1923.96 944,372 2128.01,436 2992.01,96 863.99,-340 1407.99,-1083.96 1647.99,-1559.96 240,-476 176,-684 293.07,-868 117.2,-184 415.4,-344 691.4,-512 276,-168 529.8,-344 624.6,-496 94.9,-152 30.9,-280 -93.1,-452 -124,-172 -308,-388 -400,-584 -92,-196 -92,-372 -8,-576 84,-204 252,-436 368,-668 116,-232 180,-464 72,-660.04 -108,-196 -388,-356 -676,-472 -288,-116 -584,-188 -772.08,-487.2 -188.12,-299.2 -268.34,-825.6 -348.57,-1352"
         style="fill:none;stroke:#000000;stroke-width:60.001;stroke-linecap:butt;stroke-linejoin:miter;stroke-miterlimit:22.9256;stroke-dasharray:none;stroke-opacity:1"
         id="path16" /></g></g></svg>
