<?xml version="1.0" encoding="UTF-8" standalone="no"?>
<svg
   xmlns:dc="http://purl.org/dc/elements/1.1/"
   xmlns:cc="http://creativecommons.org/ns#"
   xmlns:rdf="http://www.w3.org/1999/02/22-rdf-syntax-ns#"
   xmlns:svg="http://www.w3.org/2000/svg"
   xmlns="http://www.w3.org/2000/svg"
   xmlns:sodipodi="http://sodipodi.sourceforge.net/DTD/sodipodi-0.dtd"
   xmlns:inkscape="http://www.inkscape.org/namespaces/inkscape"
   version="1.1"
   id="svg2"
   xml:space="preserve"
   width="3200"
   height="2240"
   viewBox="0 0 3200 2240"
   sodipodi:docname="one_line_drawing_objects_popular_downloads-14.eps"><metadata
     id="metadata8"><rdf:RDF><cc:Work
         rdf:about=""><dc:format>image/svg+xml</dc:format><dc:type
           rdf:resource="http://purl.org/dc/dcmitype/StillImage" /></cc:Work></rdf:RDF></metadata><defs
     id="defs6" /><sodipodi:namedview
     pagecolor="#ffffff"
     bordercolor="#666666"
     borderopacity="1"
     objecttolerance="10"
     gridtolerance="10"
     guidetolerance="10"
     inkscape:pageopacity="0"
     inkscape:pageshadow="2"
     inkscape:window-width="640"
     inkscape:window-height="480"
     id="namedview4" /><g
     id="g10"
     inkscape:groupmode="layer"
     inkscape:label="ink_ext_XXXXXX"
     transform="matrix(1.3333333,0,0,-1.3333333,0,2240)"><g
       id="g12"
       transform="scale(0.1)"><path
         d="M 0,0 H 24000 V 16800 H 0 V 0"
         style="fill:#ffffff;fill-opacity:1;fill-rule:evenodd;stroke:none"
         id="path14" /><path
         d="m 11816.9,7755.04 c -4.4,-878.04 -4.4,-2405.94 -4.4,-3348.64 0,-942.7 0,-1300.1 0,-1495.4 0,-195.2 0,-228.3 -210.7,-244.9 -210.7,-16.5 -632.1,-16.5 -991.7,-16.5 -359.7,0 -657.55,0 -805.09,82.9 -147.55,82.9 -144.79,248.7 -99.56,576.3 45.23,327.7 132.93,817.2 64.26,1408.3 -68.68,591.2 -293.74,1284 -796.79,1921.6 -503.06,637.66 -1284.11,1220.15 -1647.06,2228.46 -362.94,1008.32 -307.78,2442.44 260.36,3451.94 568.15,1009.4 1649.27,1594.1 2642.18,1770.6 992.8,176.5 1897.4,-55.2 2642.1,-391.6 744.7,-336.5 1329.3,-777.8 1687.9,-1285.3 358.5,-507.4 490.9,-1081.1 656.4,-1428.6 165.5,-347.5 364,-468.9 656.4,-689.5 292.3,-220.6 678.4,-540.57 871.5,-750.18 193.1,-209.6 193.1,-308.89 99.3,-501.95 -93.8,-193.06 -281.3,-479.89 -397.2,-683.97 -115.8,-204.11 -159.9,-325.45 -171,-501.97 -11,-176.5 11.1,-408.17 66.2,-634.32 55.2,-226.17 143.5,-446.81 220.7,-650.91 77.2,-204.1 143.4,-391.6 137.9,-573.6 -5.5,-182.1 -82.8,-358.6 -347.5,-485.4 -264.8,-126.9 -717.1,-204.1 -1059.1,-336.5 -342,-132.4 -573.7,-320 -700.5,-650.9 -126.9,-331 -149,-805.3 -149,-1114.2 0,-308.9 22.1,-452.3 23.2,-551.6 1.1,-99.2 -18.7,-154.2 -164.3,-181.7 -145.6,-27.5 -417,-27.5 -796.4,-27.5 -379.5,0 -867,0 -1121.8,0 -254.7,0 -276.8,0 -287.8,512.9 -11.1,512.9 -11.1,1538.7 -11.1,2483.7 0,945 0,1809.1 0,2263.63 0,454.51 0,499.43 23.8,521.33 23.7,21.91 71.1,20.8 130.7,42.32 59.5,21.51 131.3,65.63 34.7,75.01 -96.6,9.38 -361.5,-16 -561.3,-19.85 -199.7,-3.87 -334.3,13.78 -411.5,51.29 -77.3,37.51 -97.1,94.88 56.2,118.05 153.4,23.16 479.9,12.13 701.6,8.82 221.8,-3.31 338.7,1.1 397.2,27.58 58.5,26.48 58.5,75.02 -13.2,113.63 -71.7,38.61 -215.2,67.29 -428,77.22 -212.9,9.93 -495.1,1.11 -660.6,35.3 -165.5,34.2 -214.2,111.43 -174.5,155.56 39.8,44.12 167.9,55.15 392.9,52.95 225.1,-2.21 547.1,-17.66 724.6,-11.03 177.6,6.62 210.6,35.29 208.4,79.42 -2.2,44.13 -39.7,103.71 -217.3,126.87 -177.6,23.17 -495.3,9.93 -687.3,8.83 -191.9,-1.11 -258.1,9.93 -292.3,25.37 -34.2,15.45 -36.4,35.31 -39.7,107.01 -3.3,71.71 -7.8,195.27 -115.9,397.15 -108.1,201.84 -319.9,482.14 -477.7,743.54 -157.7,261.5 -261.4,504.2 -243.8,766.7 17.7,262.6 156.7,545 377.3,744.7 220.7,199.7 522.9,316.6 849.5,356.3 326.5,39.7 677.3,2.2 950.9,-154.4 273.6,-156.7 470,-432.5 577,-681.8 107,-249.3 124.7,-472.2 85,-674 -39.8,-201.9 -136.8,-382.9 -233.9,-548.3 -97.1,-165.5 -194.2,-315.5 -276.9,-452.4 -82.8,-136.75 -151.2,-260.3 -190.9,-354.07 -39.7,-93.78 -50.7,-157.76 -118,-177.61 -67.3,-19.86 -190.9,4.4 -317.1,12.13 -126.3,7.72 -255.2,-1.1 -330.2,25.37 -75,26.48 -96.1,88.26 -96.8,239.39 -0.6,151.14 19.3,391.69 11.6,589.09 -7.8,197.5 -43.1,351.9 -143.5,463.4 -100.3,111.4 -265.8,179.8 -361.8,183.1 -96,3.3 -122.5,-58.5 -73.9,-132.4 48.5,-73.9 172.1,-160 286.8,-177.6 114.7,-17.7 220.7,33.1 316.6,108.1 96,75 182.1,174.3 225.1,285.7 43,111.5 43,235 6.6,308.9 -36.4,73.9 -109.2,98.2 -142.3,-6.6 -33.1,-104.8 -26.5,-338.7 16.5,-479.9 43.1,-141.2 122.5,-189.7 201.9,-214 79.5,-24.3 158.9,-24.3 235,22.1 76.1,46.3 148.9,139 153.3,198.5 4.5,59.6 -59.5,86.1 -143.4,40.9 -83.8,-45.3 -187.5,-162.2 -259.2,-279.1 -71.7,-117 -111.4,-233.9 -143.4,-427 -31.9,-193 -56,-462.23 -63.8,-665.32 -7.8,-203.1 0.8,-340.11 0.8,-522.68 -0.1,-182.59 -8.8,-410.73 -13.2,-1288.76 z"
         style="fill:none;stroke:#000000;stroke-width:72;stroke-linecap:butt;stroke-linejoin:miter;stroke-miterlimit:22.9256;stroke-dasharray:none;stroke-opacity:1"
         id="path16" /></g></g></svg>
